<svg id="Layer_1" data-name="Layer 1" xmlns="http://www.w3.org/2000/svg" width="0.6in" height="0.5in" viewBox="0 0 46.5 37.2"><title>Artboard 1</title><path d="M22,3.2,2.1,32.5a1.3,1.3,0,0,0,1.1,2H43a1.3,1.3,0,0,0,1.1-2L24.1,3.2A1.3,1.3,0,0,0,22,3.2Z" fill="none" stroke="#9bcccc" stroke-miterlimit="10"/><path d="M21.5,14h3.7a.5.5,0,0,1,.5.6l-1.8,9.6a.5.5,0,0,1-1,0L21,14.6A.5.5,0,0,1,21.5,14Z" fill="none" stroke="#9bcccc" stroke-miterlimit="10"/><circle cx="23.3" cy="28.5" r="1.7" transform="translate(-12.2 38.2) rotate(-66)" fill="none" stroke="#9bcccc" stroke-miterlimit="10"/></svg>