<svg xmlns="http://www.w3.org/2000/svg"><symbol id="adopt" viewBox="0 0 452.2 468"><path d="M304.7 246.5a34.4 34.4 0 1 0-40.8 1.8c-7.5 6.3-14.1 15.8-19.1 27.5-9.1-41.3-27.2-74.1-49.9-90a57.7 57.7 0 1 0-66.2 2.9C97.9 213.5 76.3 270 76.3 335.8h261.3c0-40.5-13.6-75.2-32.9-89.3zm-98-9.7l-1.3 2.9-14.2 22.3-16.3-21.6a13.7 13.7 0 0 1-2.7-7.2c-.8-10.6 11.9-11.7 17.5-3.6l.7-.6 1.5-1.5c5.2-5.7 18.9-4 14.8 9.3zm103.7 42.3l-8.5 13.3-9.7-12.9a8.1 8.1 0 0 1-1.6-4.3c-.5-6.3 7.1-7 10.4-2.2l.4-.4.9-.9c3.2-3.4 11.4-2.4 8.9 5.6z" data-name="Layer 2"/></symbol><symbol id="donate" viewBox="0 0 429.3 468"><path stroke="#231f20" stroke-linecap="round" stroke-miterlimit="10" d="M210.9 239.2v3.2a10.3 10.3 0 0 0 .1-1.1 14.6 14.6 0 0 0-.1-2.1zm0 0v3.2a10.3 10.3 0 0 0 .1-1.1 14.6 14.6 0 0 0-.1-2.1zm0 0c-.9-6.2-6.1-7.7-16.9-10.9-7.9-2.3-10.7-3.5-13.7-5a102.1 102.1 0 0 0 2.9 22.3c7.9 4.7 14.1 5.4 17 5.4s10-.9 10.7-8.6a10.3 10.3 0 0 0 .1-1.1 14.6 14.6 0 0 0-.1-2.1zm0 0c-.9-6.2-6.1-7.7-16.9-10.9-7.9-2.3-10.7-3.5-13.7-5a102.1 102.1 0 0 0 2.9 22.3c7.9 4.7 14.1 5.4 17 5.4s10-.9 10.7-8.6a10.3 10.3 0 0 0 .1-1.1 14.6 14.6 0 0 0-.1-2.1zm0 0c-.9-6.2-6.1-7.7-16.9-10.9-7.9-2.3-10.7-3.5-13.7-5a102.1 102.1 0 0 0 2.9 22.3c7.9 4.7 14.1 5.4 17 5.4s10-.9 10.7-8.6a10.3 10.3 0 0 0 .1-1.1 14.6 14.6 0 0 0-.1-2.1zm0 0c-.9-6.2-6.1-7.7-16.9-10.9-7.9-2.3-10.7-3.5-13.7-5a102.1 102.1 0 0 0 2.9 22.3c7.9 4.7 14.1 5.4 17 5.4s10-.9 10.7-8.6a10.3 10.3 0 0 0 .1-1.1 14.6 14.6 0 0 0-.1-2.1zm0 0c-.9-6.2-6.1-7.7-16.9-10.9-7.9-2.3-10.7-3.5-13.7-5a102.1 102.1 0 0 0 2.9 22.3c7.9 4.7 14.1 5.4 17 5.4s10-.9 10.7-8.6a10.3 10.3 0 0 0 .1-1.1 14.6 14.6 0 0 0-.1-2.1zm0 0c-.9-6.2-6.1-7.7-16.9-10.9-7.9-2.3-10.7-3.5-13.7-5a102.1 102.1 0 0 0 2.9 22.3c7.9 4.7 14.1 5.4 17 5.4s10-.9 10.7-8.6a10.3 10.3 0 0 0 .1-1.1 14.6 14.6 0 0 0-.1-2.1zm10.4-143.5c-4 4-8.1 8-12.4 11.7l-5.8 4.9h-.2C158.3 44.1 53.8 50.5 58 138.4a112.3 112.3 0 0 0 21.2 59.8l130.2 181.6h.2l121.7-180.9 11.6-23.3c36.7-109-76.1-125.6-121.6-79.9zm-12.4 168.5v11.4l-.9.9h-11.6l-.9-.9v-12.5c-7.1-1.2-15.1-2.7-21.3-2.7a47.2 47.2 0 0 0-7.9.7l-1.1-.7-.5-35.4.7-.8 10.6-4c-4.3-3-10.7-10.9-10.7-23s6.2-24.1 16.9-28.3a40.7 40.7 0 0 1 6.2-1.8 62.4 62.4 0 0 1 13.5-1v-11.3l.9-.9h11.5l.9.9v12.1a59.8 59.8 0 0 1 9.3 2l4.8 1.3 13.9-2 .8.8c0 .8-.1 4.8-.1 5.8l-1.3 24-.8 1.2-11.8 1.6c-1.3.1-2.3-1.5-2.4-3.1-.5-6.7-1.6-11.2-5.6-16.5a15.9 15.9 0 0 0-8.4-2c-5.8 0-9.1 2.7-10.7 5.8a10.6 10.6 0 0 0-1.1 3.2 10.1 10.1 0 0 0-.1 1.6c0 8.3 6.8 10.3 20.8 14.2 10.5 3 24.8 7 24.8 26s-13.9 34.4-38.4 33.4zm2-25c-.9-6.2-6.1-7.7-16.9-10.9-7.9-2.3-10.7-3.5-13.7-5a102.1 102.1 0 0 0 2.9 22.3c7.9 4.7 14.1 5.4 17 5.4s10-.9 10.7-8.6a10.3 10.3 0 0 0 .1-1.1 14.6 14.6 0 0 0-.1-2zm0 0c-.9-6.2-6.1-7.7-16.9-10.9-7.9-2.3-10.7-3.5-13.7-5a102.1 102.1 0 0 0 2.9 22.3c7.9 4.7 14.1 5.4 17 5.4s10-.9 10.7-8.6a10.3 10.3 0 0 0 .1-1.1 14.6 14.6 0 0 0-.1-2.1zm0 0c-.9-6.2-6.1-7.7-16.9-10.9-7.9-2.3-10.7-3.5-13.7-5a102.1 102.1 0 0 0 2.9 22.3c7.9 4.7 14.1 5.4 17 5.4s10-.9 10.7-8.6a10.3 10.3 0 0 0 .1-1.1 14.6 14.6 0 0 0-.1-2.1zm0 0c-.9-6.2-6.1-7.7-16.9-10.9-7.9-2.3-10.7-3.5-13.7-5a102.1 102.1 0 0 0 2.9 22.3c7.9 4.7 14.1 5.4 17 5.4s10-.9 10.7-8.6a10.3 10.3 0 0 0 .1-1.1 14.6 14.6 0 0 0-.1-2.1zm0 0c-.9-6.2-6.1-7.7-16.9-10.9-7.9-2.3-10.7-3.5-13.7-5a102.1 102.1 0 0 0 2.9 22.3c7.9 4.7 14.1 5.4 17 5.4s10-.9 10.7-8.6a10.3 10.3 0 0 0 .1-1.1 14.6 14.6 0 0 0-.1-2.1zm0 0c-.9-6.2-6.1-7.7-16.9-10.9-7.9-2.3-10.7-3.5-13.7-5a102.1 102.1 0 0 0 2.9 22.3c7.9 4.7 14.1 5.4 17 5.4s10-.9 10.7-8.6a10.3 10.3 0 0 0 .1-1.1 14.6 14.6 0 0 0-.1-2.1zm0 0c-.9-6.2-6.1-7.7-16.9-10.9-7.9-2.3-10.7-3.5-13.7-5a102.1 102.1 0 0 0 2.9 22.3c7.9 4.7 14.1 5.4 17 5.4s10-.9 10.7-8.6a10.3 10.3 0 0 0 .1-1.1 14.6 14.6 0 0 0-.1-2.1zm-19-78.5a14.9 14.9 0 0 0-3.6 6.4 62.4 62.4 0 0 1 13.5-1v-10.6a18.2 18.2 0 0 0-9.9 5.2zm10.8 25.1a10.6 10.6 0 0 0-1.1 3.2l1.1.8zm8.2 53.4v3.2a10.3 10.3 0 0 0 .1-1.1 14.6 14.6 0 0 0-.1-2.1zm0 0v3.2a10.3 10.3 0 0 0 .1-1.1 14.6 14.6 0 0 0-.1-2.1zm-19-78.5a14.9 14.9 0 0 0-3.6 6.4 62.4 62.4 0 0 1 13.5-1v-10.6a18.2 18.2 0 0 0-9.9 5.2zm10.8 25.1a10.6 10.6 0 0 0-1.1 3.2l1.1.8z" data-name="Layer 2"/></symbol><symbol id="facebook" viewBox="0 0 458.1 468"><path d="M228.3 24C111.7 24 17.1 118.5 17.1 235.1s94.5 211.2 211.2 211.2 211.2-94.5 211.2-211.2S344.9 24 228.3 24zm72 113.3h-24a22.9 22.9 0 0 0-22.9 22.9v18.1h46.9l-5.4 55.3h-41.5v158.6h-67V234.4h-34.8v-56.1h32.1v-63.7A38.2 38.2 0 0 1 222 76.3h78.3z"/></symbol><symbol id="foster" viewBox="0 0 444.5 468"><g stroke="#231f20" stroke-linecap="round" stroke-miterlimit="10" data-name="Layer 2"><path d="M213.4 221.6C172.1 171.9 90.5 183 97.3 254a93.8 93.8 0 0 0 20.1 49.1l47.5 60c33.2 42 98.1 37.9 125.8-7.8l37.3-61.5 8.8-19.9C363.1 181.4 268.3 172 232 212c-3.2 3.5-6.4 7-9.9 10.2a5.9 5.9 0 0 1-8.7-.6z"/><ellipse cx="176.7" cy="119.1" rx="41.4" ry="53.2" transform="rotate(-15.5 177.242 119.168)"/><ellipse cx="273.8" cy="119.1" rx="56.1" ry="41.3" transform="rotate(-76.4 273.583 119.091)"/><ellipse cx="368.8" cy="167.1" rx="32.5" ry="42"/><ellipse cx="77.9" cy="162.9" rx="32.5" ry="42"/></g></symbol><symbol id="mail" viewBox="0 0 452 468"><path d="M181.3 236.9l-66.5 58.6V178.3l66.5 58.6zm132.1 68.5h-177l61.5-55.6 27 22.4 24.5-22.4 64 55.6zm0-140.4l-89.7 80.6-91.5-80.6h181.2zm17.5 13.3v117.2l-65.7-58.6 65.7-58.6z"/><path d="M224.1 25C108.4 25 14.7 118.8 14.7 234.4s93.7 209.4 209.4 209.4S433.4 350 433.4 234.4 339.7 25 224.1 25zm128.4 302H94V140h258.5z"/><path d="M313.4 165l-89.7 80.6-91.5-80.6h181.2zm-132.1 71.9l-66.5 58.6V178.3l66.5 58.6zm132.1 68.5h-177l61.5-55.6 27 22.4 24.5-22.4 64 55.6zm17.5-127.1v117.2l-65.7-58.6 65.7-58.6z"/><path d="M181.3 236.9l-66.5 58.6V178.3l66.5 58.6zm132.1 68.5h-177l61.5-55.6 27 22.4 24.5-22.4 64 55.6zm0-140.4l-89.7 80.6-91.5-80.6h181.2zm17.5 13.3v117.2l-65.7-58.6 65.7-58.6z"/></symbol><symbol id="menu" viewBox="0 0 472.4 468"><path d="M77.9 290.4h318.4v54.51H77.9zm0-90.2h318.4v54.51H77.9zM78 110h318.4v54.51H78z"/></symbol><symbol id="twitter" viewBox="0 0 483 468"><path d="M247.5 21.6c-117 0-211.9 94.9-211.9 211.9s94.9 211.9 211.9 211.9 211.9-94.9 211.9-211.9S364.5 21.6 247.5 21.6zm103.2 168.6c0 104.5-116.6 216.2-235.7 136.9 53.6 5.1 75-21.6 75-21.6-38.8-2.8-46.9-37.6-46.9-37.6l21.4-1.3c-48.2-20.1-41.5-52.2-41.5-52.2l25.4 8.1c-36.2-38.9-17.4-75.1-17.4-75.1 48.2 56.3 110.5 58 110.5 58-1.9-28.4 9.2-48 25.4-58.4s39.4-10.5 56.5.7l9.8 6.4L368 140c1.3 16.4-16.8 32.2-17.4 32.7l17.5-7.8z"/></symbol></svg>