<svg xmlns="http://www.w3.org/2000/svg"><symbol id="adopt" viewBox="0 0 452.2 468"><g stroke="#231f20" stroke-linecap="round" stroke-miterlimit="10" data-name="Layer 2"><path fill="#231f20" d="M149.6 198.6c-32.4 20.4-55.4 72.3-55.4 133.1h171.7c0-60.8-23-112.8-55.4-133.1a60.9 60.9 0 1 0-60.9 0z"/><path fill="#231f20" d="M276.9 254.4c-18.9 11.9-32.4 42.2-32.4 77.8h100.3c0-35.5-13.4-65.9-32.4-77.8a35.6 35.6 0 1 0-35.5 0z"/><path fill="#f1f2f2" d="M225.4 249l-1.3 2.9-14.2 22.3-16.3-21.6a13.6 13.6 0 0 1-2.7-7.2c-.8-10.6 11.9-11.7 17.5-3.6l.7-.6 1.5-1.4c5.1-5.8 18.9-4.2 14.8 9.2zm95.9 33.8l-.6 1.2-6.7 9.4-6.6-9.8a5.9 5.9 0 0 1-1-3.2c-.1-4.7 5.4-4.9 7.7-1.2l.3-.3.7-.6c2.4-2.2 8.3-1.2 6.2 4.5z"/></g></symbol><symbol id="facebook" viewBox="0 0 458.1 468"><path fill="#231f20" d="M228.3 24C111.7 24 17.1 118.5 17.1 235.1s94.5 211.2 211.2 211.2 211.2-94.5 211.2-211.2S344.9 24 228.3 24zm72 113.3h-24a22.9 22.9 0 0 0-22.9 22.9v18.1h46.9l-5.4 55.3h-41.5v158.6h-67V234.4h-34.8v-56.1h32.1v-63.7A38.2 38.2 0 0 1 222 76.3h78.3z"/></symbol><symbol id="donate" viewBox="0 0 429.3 468"><path fill="#231f20" stroke="#231f20" stroke-linecap="round" stroke-miterlimit="10" d="M203.9 182.5a12 12 0 0 0-3.7 8.6q0 7.5 12.2 15.8v-28.6a15.2 15.2 0 0 0-8.5 4.2zm14.3 47.4v34a15.2 15.2 0 0 0 10.1-5 15.5 15.5 0 0 0 3.8-10.6q0-9.7-13.9-18.4zm0 0v34a15.2 15.2 0 0 0 10.1-5 15.5 15.5 0 0 0 3.8-10.6q0-9.7-13.9-18.4zm-17.9-38.7q0 7.5 12.2 15.8v-28.7a15.2 15.2 0 0 0-8.5 4.2 12 12 0 0 0-3.7 8.6zm29.6-62.4c-3.4 3.3-6.9 6.5-10.6 9.5l-5 4h-.1c-35.9-58-123.4-54.8-121.7 18.8a93.8 93.8 0 0 0 16.5 50.4L214.1 366h.2l105.4-148.7 10.2-19.2c32.9-90.4-61.1-106.6-100.1-69.3zm8.4 134.7q-8 6.6-20 7v8.2h-5.8v-8.4a53.5 53.5 0 0 1-9.7-2.7c-4.2-1.5-6.7-2.3-7.5-2.3s-3.6 1.6-4.1 4.7h-3.9l-4.3-31h4.3q8.2 22.7 25.2 24.8v-37.3q-12.6-7.3-17.1-11.6-8.4-7.9-8.4-18.1l.3-.8a23.6 23.6 0 0 1 7.3-17.7 24.8 24.8 0 0 1 17.9-7.1v-8.4h5.8v9.2l7.2 2.5a23.1 23.1 0 0 0 7.2 1.5c2.5 0 4.4-1.6 5.5-4.7h3.5l2.9 31.1h-3.9q-7.8-22.1-22.3-24.2v32.4q15 9.3 19.3 13.4 9.5 8.9 9.5 20.5a23.3 23.3 0 0 1-9 19zm-20-33.6v34a15.2 15.2 0 0 0 10.1-5 15.5 15.5 0 0 0 3.8-10.6q-.1-9.7-14-18.4zm-17.9-38.7q0 7.5 12.2 15.8v-28.7a15.2 15.2 0 0 0-8.5 4.2 12 12 0 0 0-3.8 8.6zm3.7-8.6a12 12 0 0 0-3.7 8.6q0 7.5 12.2 15.8v-28.7a15.2 15.2 0 0 0-8.7 4.2zm14.3 47.4v34a15.2 15.2 0 0 0 10.1-5 15.5 15.5 0 0 0 3.8-10.6q-.2-9.8-14.1-18.5zm0 0v34a15.2 15.2 0 0 0 10.1-5 15.5 15.5 0 0 0 3.8-10.6q-.2-9.8-14.1-18.5zm-14.3-47.4a12 12 0 0 0-3.7 8.6q0 7.5 12.2 15.8v-28.7a15.2 15.2 0 0 0-8.7 4.2z" data-name="Layer 2"/></symbol><symbol id="foster" viewBox="0 0 444.5 468"><g fill="#231f20" stroke="#231f20" stroke-linecap="round" stroke-miterlimit="10" data-name="Layer 2"><path d="M213.4 221.6C172.1 171.9 90.5 183 97.3 254a93.8 93.8 0 0 0 20.1 49.1l47.5 60c33.2 42 98.1 37.9 125.8-7.8l37.3-61.5 8.8-19.9C363.1 181.4 268.3 172 232 212c-3.2 3.5-6.4 7-9.9 10.2a5.9 5.9 0 0 1-8.7-.6z"/><ellipse cx="176.7" cy="119.1" rx="41.4" ry="53.2" transform="rotate(-15.5 177.242 119.168)"/><ellipse cx="273.8" cy="119.1" rx="56.1" ry="41.3" transform="rotate(-76.4 273.583 119.091)"/><ellipse cx="368.8" cy="167.1" rx="32.5" ry="42"/><ellipse cx="77.9" cy="162.9" rx="32.5" ry="42"/></g></symbol><symbol id="mail" viewBox="0 0 452 468"><path d="M181.3 236.9l-66.5 58.6V178.3l66.5 58.6zm68.1 12.9l64 55.6h-177l61.5-55.6 27 22.4 24.5-22.4zm-25.7-4.2L132.2 165h181.2l-89.7 80.6zm41.5-8.7l65.7-58.6v117.2l-65.7-58.6z"/><path d="M224.1 25C108.4 25 14.7 118.8 14.7 234.4s93.7 209.4 209.4 209.4S433.4 350 433.4 234.4 339.7 25 224.1 25zm128.4 302H94V140h258.5z"/><path fill="none" d="M313.4 165l-89.7 80.6-91.5-80.6h181.2zm-132.1 71.9l-66.5 58.6V178.3l66.5 58.6zm132.1 68.5h-177l61.5-55.6 27 22.4 24.5-22.4 64 55.6zm17.5-127.1v117.2l-65.7-58.6 65.7-58.6z"/><path fill="none" d="M94 140v187h258.5V140zm219.4 25l-89.7 80.6-91.5-80.6zm-198.6 13.3l66.5 58.6-66.5 58.6zm21.6 127.2l61.5-55.7 27 22.4 24.5-22.4 64 55.7zm194.5-10l-65.7-58.6 65.7-58.6z"/><path fill="none" d="M181.3 236.9l-66.5 58.6V178.3l66.5 58.6zm68.1 12.9l64 55.6h-177l61.5-55.6 27 22.4 24.5-22.4zm-25.7-4.2L132.2 165h181.2l-89.7 80.6zm107.2-67.3v117.2l-65.7-58.6 65.7-58.6z"/></symbol><symbol id="menu" viewBox="0 0 472.4 468"><path d="M77.9 290.4h318.4v54.51H77.9zm0-90.2h318.4v54.51H77.9zM78 110h318.4v54.51H78z"/></symbol><symbol id="twitter" viewBox="0 0 483 468"><path fill="#231f20" d="M247.5 21.6c-117 0-211.9 94.9-211.9 211.9s94.9 211.9 211.9 211.9 211.9-94.9 211.9-211.9S364.5 21.6 247.5 21.6zm103.2 168.6c0 104.5-116.6 216.2-235.7 136.9 53.6 5.1 75-21.6 75-21.6-38.8-2.8-46.9-37.6-46.9-37.6l21.4-1.3c-48.2-20.1-41.5-52.2-41.5-52.2l25.4 8.1c-36.2-38.9-17.4-75.1-17.4-75.1 48.2 56.3 110.5 58 110.5 58-1.9-28.4 9.2-48 25.4-58.4s39.4-10.5 56.5.7l9.8 6.4L368 140c1.3 16.4-16.8 32.2-17.4 32.7l17.5-7.8z"/></symbol></svg>