<svg id="Layer_1" data-name="Layer 1" xmlns="http://www.w3.org/2000/svg" width="16" height="16" viewBox="0 0 16 16"><title>Artboard 1</title><polygon points="2.1 6 2.1 10.9 7 10.9 7 6 4.6 3.5 2.1 6" fill="none" stroke="#000" stroke-linecap="round" stroke-miterlimit="10" stroke-width="0.6"/><path d="M2.1,6a1.6,1.6,0,0,1-1.4.4" fill="#fff" stroke="#000" stroke-linecap="round" stroke-miterlimit="10" stroke-width="0.6"/><path d="M8.4,6.4A1.6,1.6,0,0,1,7,6" fill="#fff" stroke="#000" stroke-linecap="round" stroke-miterlimit="10" stroke-width="0.6"/><path d="M8.2,9.3h.5V9h.2v.5H7.9V7.9h.3Z"/><path d="M10,7.6a.9.9,0,0,1,.8,1,.9.9,0,1,1-1.7,0A.9.9,0,0,1,10,7.6Zm.1,1.7h.2a.8.8,0,0,0,.2-.6c0-.5-.2-.8-.6-.8H9.7a.9.9,0,0,0-.2.6C9.5,9.1,9.8,9.3,10.1,9.3Z"/><path d="M11.4,8.8l-.5-.9h.4l.4.7.4-.7h.3l-.5.9v.5h-.3Z"/><path d="M12.8,7.7h.4l.6,1.7h-.4V8.9h-.7v.4h-.2Zm-.2,1.1h.5L12.9,8Z"/><path d="M14.6,9.3h.5V9h.2v.5H14.3V7.9h.3Z"/><path d="M7.9,10.3c0-.1,0-.2,0-.3h.2v.3c.1-.2.2-.3.4-.3h.1v.3H8.5v-.2c-.1,0-.2.1-.3.3V11H7.9Z"/><path d="M9.9,10.9l-.4.2a.5.5,0,0,1-.6-.6.6.6,0,0,1,.6-.6.5.5,0,0,1,.4.5H9.2c0,.3.2.5.4.5h.4Zm-.8-.5h.6a.3.3,0,0,0-.3-.3H9.3A.5.5,0,0,0,9.2,10.4Z"/><path d="M10.7,11.1h-.3v-.3h.2V11h.3v-.2c0-.3-.6-.2-.6-.6a.4.4,0,0,1,.4-.4h.3v.3h-.2V10h-.3v.2c0,.3.6.2.6.6S10.9,11.1,10.7,11.1Z"/><path d="M12.1,9.9h.3v.3h-.2v-.2h-.3a.6.6,0,0,0-.2.4c0,.3.2.5.4.5h.4l-.4.2a.5.5,0,0,1-.5-.6A.6.6,0,0,1,12.1,9.9Z"/><path d="M13.1,10.7c0,.2.1.3.2.3h.3v-.5c0-.1,0-.2,0-.3h.2c0,.1,0,.3,0,.4V11h-.2v-.2l-.4.2c-.2,0-.4-.2-.4-.4v-.4c0-.1,0-.2,0-.3h.2c0,.1,0,.3,0,.4Z"/><path d="M15.4,10.9l-.4.2a.5.5,0,0,1-.6-.6.6.6,0,0,1,.6-.6.5.5,0,0,1,.4.5h-.8c0,.3.2.5.4.5h.4Zm-.8-.5h.6a.3.3,0,0,0-.3-.3h-.1A.5.5,0,0,0,14.6,10.4Z"/><path d="M4.5,7.6l-.2-.4H3.4a.5.5,0,0,0,0,.5A10.6,10.6,0,0,0,4.5,9.4"/><path d="M4.5,7.6l.2-.4h.9a.5.5,0,0,1,0,.5A10.6,10.6,0,0,1,4.5,9.4"/></svg>