<svg xmlns="http://www.w3.org/2000/svg" width="256" height="256" data-name="Layer 1" viewBox="0 0 256 256"><path d="M120.7 193.4H34.5v-84.2l43.1-43.1 43.1 43.1zm-79.2-7h72.2v-74.3L77.6 76l-36.1 36.1z"/><path fill="#fff" d="M38 110.7a25.6 25.6 0 0 1-23 7"/><path d="M19.9 121.6a25.5 25.5 0 0 1-5.8-.6 3.5 3.5 0 1 1 1.7-6.8 22 22 0 0 0 19.7-6 3.5 3.5 0 0 1 4.9 5 28.6 28.6 0 0 1-20.5 8.4z"/><path fill="#fff" d="M140.3 117.8a25.6 25.6 0 0 1-23-7.1"/><path d="M135.3 121.8a29.2 29.2 0 0 1-20.6-8.7 3.5 3.5 0 0 1 5.2-4.7 22 22 0 0 0 19.7 6 3.5 3.5 0 0 1 1.3 6.9 29.5 29.5 0 0 1-5.6.5zm-4.3 46.3v-28.9h3.4v25.9h12.7v3zm45.3-14.4q0 6.9-3.5 10.9t-9.8 4q-6.4 0-9.9-3.9t-3.5-11q0-7.1 3.5-10.9t9.9-3.9q6.2 0 9.7 4t3.6 10.8zm-23 0q0 5.9 2.5 8.9t7.3 3q4.8 0 7.3-3t2.5-8.9q0-5.8-2.4-8.8t-7.2-3q-4.8 0-7.3 3t-2.7 8.8zm34 0l7.7-14.4h3.6l-9.6 17.6v11.2h-3.4v-11l-9.6-17.8h3.7zm27.2 14.4l-3.6-9.2h-11.6l-3.6 9.2h-3.4l11.4-29h2.8l11.4 29zm-4.6-12.2l-3.4-9q-.7-1.7-1.3-4.2a37.4 37.4 0 0 1-1.2 4.2l-3.4 9zm12.1 12.2v-28.9h3.4v25.9h12.7v3zm-84.5 6l2.7.3-.3 1.7a10.4 10.4 0 0 0-2.5-.3 4.9 4.9 0 0 0-4.1 2.1 8.7 8.7 0 0 0-1.6 5.4v10.8h-1.8v-19.6h1.5l.2 3.5h.1a8.3 8.3 0 0 1 2.6-3 6 6 0 0 1 3.2-.9zm14.4 20.4a8.5 8.5 0 0 1-6.7-2.6q-2.4-2.6-2.4-7.4a11.5 11.5 0 0 1 2.3-7.5 7.6 7.6 0 0 1 6.2-2.8 6.7 6.7 0 0 1 5.5 2.4 10 10 0 0 1 2 6.6v1.4h-14a9.3 9.3 0 0 0 1.9 6.2 6.6 6.6 0 0 0 5.3 2.1l2.9-.2a17.9 17.9 0 0 0 3.2-1v1.6a14.4 14.4 0 0 1-3.1 1zm-.5-18.7a5.9 5.9 0 0 0-4.5 1.9 8.8 8.8 0 0 0-2 5.4H157a8.5 8.5 0 0 0-1.5-5.3 4.9 4.9 0 0 0-4.1-2.1zm24.9 13.2a4.7 4.7 0 0 1-2 4 9.7 9.7 0 0 1-5.7 1.4 13.5 13.5 0 0 1-6.2-1.2v-1.9a13.8 13.8 0 0 0 6.2 1.5 8.2 8.2 0 0 0 4.4-1 2.9 2.9 0 0 0 1.5-2.6 3.1 3.1 0 0 0-1.2-2.5 13.2 13.2 0 0 0-3.9-2 22.6 22.6 0 0 1-4.1-1.8 5.7 5.7 0 0 1-1.8-1.7 4.3 4.3 0 0 1-.6-2.4 4 4 0 0 1 1.8-3.5 9 9 0 0 1 5.2-1.3 15.5 15.5 0 0 1 6 1.2l-.7 1.6a14.1 14.1 0 0 0-5.4-1.2 7.8 7.8 0 0 0-3.8.8 2.4 2.4 0 0 0-1.4 2.2 3 3 0 0 0 1.1 2.5 15.2 15.2 0 0 0 4.3 2.1 21 21 0 0 1 3.9 1.7 5.6 5.6 0 0 1 1.8 1.7 4.3 4.3 0 0 1 .6 2.4zm12.8 5.5a8.4 8.4 0 0 1-6.6-2.6q-2.4-2.6-2.4-7.4t2.5-7.6a8.7 8.7 0 0 1 6.8-2.7 13.6 13.6 0 0 1 4.9.9l-.5 1.6a14.3 14.3 0 0 0-4.4-.8 6.7 6.7 0 0 0-5.5 2.2q-1.9 2.2-1.9 6.4a9.5 9.5 0 0 0 1.9 6.2 6.4 6.4 0 0 0 5.2 2.2 12.7 12.7 0 0 0 5-1v1.7a11.2 11.2 0 0 1-5 .9zm11.1-20v12.7a6.2 6.2 0 0 0 1.2 4.3 5 5 0 0 0 3.9 1.3q3.5 0 5.1-1.8t1.6-5.7v-10.8h1.8v19.6h-1.5l-.3-2.7h-.1q-1.9 3.1-6.8 3.1-6.7 0-6.7-7.2v-12.8zm28.1 20a8.5 8.5 0 0 1-6.7-2.6q-2.4-2.6-2.4-7.4a11.5 11.5 0 0 1 2.3-7.5 7.6 7.6 0 0 1 6.2-2.8 6.7 6.7 0 0 1 5.5 2.4 10 10 0 0 1 2 6.6v1.4h-14.1a9.3 9.3 0 0 0 1.9 6.2 6.6 6.6 0 0 0 5.3 2.1l2.9-.2a17.9 17.9 0 0 0 3.2-1v1.6a14.4 14.4 0 0 1-3.1 1zm-.5-18.7a5.9 5.9 0 0 0-4.5 1.9 8.8 8.8 0 0 0-2 5.4h12.1a8.5 8.5 0 0 0-1.5-5.3 4.9 4.9 0 0 0-4.2-2.1zM76.5 136.9a17.5 17.5 0 0 0-6.4-8 8.3 8.3 0 0 0-8.4-.7 8 8 0 0 0-2.5 1.9l-.3.4a8.1 8.1 0 0 0-.7 8.5c3.6 7.3 10.4 17.2 18.3 27.1m0-29.2a17.5 17.5 0 0 1 6.4-8 8.3 8.3 0 0 1 8.4-.7 8 8 0 0 1 2.5 1.9l.3.4a8.1 8.1 0 0 1 .7 8.5c-3.6 7.3-10.4 17.2-18.3 27.1"/></svg>