<svg id="Layer_1" data-name="Layer 1" xmlns="http://www.w3.org/2000/svg" width="256" height="256" viewBox="0 0 256 256"><title>Artboard 1</title><polygon points="28 110.7 28 189.9 107.2 189.9 107.2 110.7 67.6 71.1 28 110.7" fill="none" stroke="#000" stroke-linecap="round" stroke-miterlimit="10" stroke-width="7"/><path d="M28,110.7a25.6,25.6,0,0,1-23,7" fill="#fff" stroke="#000" stroke-linecap="round" stroke-miterlimit="10" stroke-width="7"/><path d="M130.3,117.8a25.6,25.6,0,0,1-23-7.1" fill="#fff" stroke="#000" stroke-linecap="round" stroke-miterlimit="10" stroke-width="7"/><path d="M127,165.1h8.3l2-5.7h3.1l-.7,8.6H118.2v-2.1a11.6,11.6,0,0,0,3.2-.9V141.5a11.1,11.1,0,0,0-3.2-.9v-2.3h12v2.3a11.4,11.4,0,0,0-3.2.9Z"/><path d="M155.4,137.9c8.1,0,13.4,6.8,13.4,15.4s-5.5,15.2-14,15.2-13.5-6.8-13.5-15.3S146.3,137.9,155.4,137.9Zm.8,27.5a8.5,8.5,0,0,0,3.4-.6c2-2.1,3.2-5.1,3.2-10,0-8.7-3.4-13.4-9-13.4a8.4,8.4,0,0,0-4,1.1c-1.7,2.2-2.5,5.2-2.5,9.4C147.3,161.3,151.4,165.4,156.2,165.4Z"/><path d="M177.6,156.4l-8.1-14.8a11.8,11.8,0,0,0-3.2-.9v-2.3h12.8v2.3a11.4,11.4,0,0,0-3.2.9l5.7,11.2,5.9-11.2a11.1,11.1,0,0,0-3.2-.9v-2.3h10.5v2.3a11.8,11.8,0,0,0-3.2.9l-8.2,14.8V165a11.8,11.8,0,0,0,3.2.9v2.1H174.3v-2.1a12.1,12.1,0,0,0,3.3-.9Z"/><path d="M200.7,138.3h5.7l9.6,26.7a11.8,11.8,0,0,0,3.2.9v2.1H206.8v-2.1a11.8,11.8,0,0,0,3.2-.9l-2.1-6.2H197.1l-2.1,6.2a10.5,10.5,0,0,0,3.2.9v2.1H187.8v-2.1a11.8,11.8,0,0,0,3.2-.9Zm-2.6,17.4h8.7l-4.3-12.7Z"/><path d="M229.6,165.1h8.3l2-5.7h3.1l-.7,8.6H220.8v-2.1a11.6,11.6,0,0,0,3.2-.9V141.5a11.1,11.1,0,0,0-3.2-.9v-2.3h12v2.3a11.4,11.4,0,0,0-3.2.9Z"/><path d="M120.9,181c0-1,0-3.5-.1-4.1l-3.2-.4V175l6.6-.6c.1,1.5.3,3.3.3,5.1,1.7-3.1,3.6-5.1,6.2-5.1a4.3,4.3,0,0,1,2.4.7v5.4h-2.6l-.9-3.2c-2,0-3.4,1.7-5,4.4v10.2a10.6,10.6,0,0,0,2.5.7v1.2h-8.7v-1.2a10.6,10.6,0,0,0,2.6-.7Z"/><path d="M154,190.6a8.2,8.2,0,0,1-7.1,3.5c-5.4,0-8.9-3.9-8.9-9.7s3.4-10.1,9-10.1c3.9,0,7,3.3,7.2,8.1a5,5,0,0,1-1,1.3H141.6c0,5.6,3.3,8.1,6.3,8.1a6.3,6.3,0,0,0,5.1-2.1ZM141.7,182c3.1,0,9.2-.1,9.2-.3,0-3.4-2.1-5.4-5.1-5.4l-1.5.2A7.7,7.7,0,0,0,141.7,182Z"/><path d="M166.1,194.1a10.6,10.6,0,0,1-5.6-1.5l-.3-4.1h2.4l1,3a7.1,7.1,0,0,0,3.3.8l2-.2a3.8,3.8,0,0,0,1.3-3c0-4.3-10-2.8-10-9.1,0-3.7,3.7-5.7,7-5.7a12.4,12.4,0,0,1,5.1,1.1v4.2h-2.5l-.8-2.9a8,8,0,0,0-2.8-.5h-1.4a3.3,3.3,0,0,0-1.5,2.7c0,4.4,10,3,10,9.3C173.4,191.7,170.4,194.1,166.1,194.1Z"/><path d="M188.6,174.3a12.2,12.2,0,0,1,5.1,1.1v5H191l-.6-3.2a8.5,8.5,0,0,0-3.5-.8h-1.3c-1.8,1.7-2.5,3.8-2.5,7.1,0,5.5,2.8,8.1,5.8,8.1a6,6,0,0,0,4.7-2.1l1,1a7.8,7.8,0,0,1-6.8,3.5c-5,0-8.4-3.7-8.4-9.7S182.9,174.3,188.6,174.3Z"/><path d="M205.8,187c0,3.9,2.1,4.5,3.8,4.5a7.7,7.7,0,0,0,4.4-1.7V181c0-1,0-3.5-.1-4.1l-3.2-.4V175l6.8-.6c.1,1.9.1,4.3.1,6.6v6.4c0,1.2.1,3.7.2,4.3l2.9.3v1.4l-6.2.7c-.1-.8-.2-1.8-.3-2.9a9,9,0,0,1-6.2,2.9c-3.8,0-5.9-3-5.9-6.9V181c0-1,0-3.5-.1-4.1l-3.2-.4V175l6.8-.6c.1,1.9.1,4.3.1,6.6Z"/><path d="M242,190.6a8.2,8.2,0,0,1-7.1,3.5c-5.4,0-8.9-3.9-8.9-9.7s3.4-10.1,9-10.1c3.9,0,7,3.3,7.2,8.1a5,5,0,0,1-1,1.3H229.6c0,5.6,3.3,8.1,6.3,8.1a6.3,6.3,0,0,0,5.1-2.1ZM229.7,182c3.1,0,9.2-.1,9.2-.3,0-3.4-2.1-5.4-5.1-5.4l-1.5.2A7.7,7.7,0,0,0,229.7,182Z"/><path d="M66.5,136.9a17.5,17.5,0,0,0-6.4-8,8.3,8.3,0,0,0-8.4-.7,8,8,0,0,0-2.5,1.9l-.3.4a8.1,8.1,0,0,0-.7,8.5c3.6,7.3,10.4,17.2,18.3,27.1"/><path d="M66.5,136.9a17.5,17.5,0,0,1,6.4-8,8.3,8.3,0,0,1,8.4-.7,8,8,0,0,1,2.5,1.9l.3.4a8.1,8.1,0,0,1,.7,8.5c-3.6,7.3-10.4,17.2-18.3,27.1"/></svg>