<svg id="Layer_1" data-name="Layer 1" xmlns="http://www.w3.org/2000/svg" width="64" height="64" viewBox="0 0 64 64"><title>logo-64</title><path d="M30.9,44.1H8.6V22.3L19.8,11.1,30.9,22.3ZM10.4,42.3H29.1V23l-9.3-9.3L10.4,23Z"/><path d="M9.5,22.7a6.6,6.6,0,0,1-6,1.8" fill="#fff"/><path d="M4.8,25.5l-1.5-.2a.9.9,0,0,1,.4-1.8A5.7,5.7,0,0,0,8.9,22a.9.9,0,1,1,1.3,1.3A7.4,7.4,0,0,1,4.8,25.5Z"/><path d="M36,24.5a6.6,6.6,0,0,1-5.9-1.8" fill="#fff"/><path d="M34.7,25.6a7.6,7.6,0,0,1-5.3-2.3.9.9,0,1,1,1.3-1.2,5.7,5.7,0,0,0,5.1,1.5.9.9,0,0,1,.3,1.8Z"/><path d="M33.6,37.5V30.1h.9v6.7h3.3v.8Z"/><path d="M45.3,33.8a4.1,4.1,0,0,1-.9,2.8,3.2,3.2,0,0,1-2.5,1,3.2,3.2,0,0,1-2.6-1,4.2,4.2,0,0,1-.9-2.9,4.1,4.1,0,0,1,.9-2.8,3.3,3.3,0,0,1,2.6-1,3.2,3.2,0,0,1,2.5,1A4.1,4.1,0,0,1,45.3,33.8Zm-6,0a3.6,3.6,0,0,0,.6,2.3,2.6,2.6,0,0,0,3.8,0,3.6,3.6,0,0,0,.6-2.3,3.6,3.6,0,0,0-.6-2.3,2.3,2.3,0,0,0-1.9-.8,2.3,2.3,0,0,0-1.9.8A3.5,3.5,0,0,0,39.4,33.8Z"/><path d="M48.2,33.8l2-3.7h.9l-2.5,4.6v2.9h-.9V34.7l-2.5-4.6h1Z"/><path d="M55.2,37.5l-.9-2.4h-3l-.9,2.4h-.9l3-7.5h.7l2.9,7.5ZM54,34.4l-.9-2.3L52.8,31l-.3,1.1-.9,2.3Z"/><path d="M57.2,37.5V30.1H58v6.7h3.3v.8Z"/><path d="M35.3,39.1H36v.4h-.7a1.3,1.3,0,0,0-1.1.6,2.2,2.2,0,0,0-.4,1.4v2.8h-.5V39.2h.4v.9h0a2.2,2.2,0,0,1,.7-.8Z"/><path d="M39,44.4a2.2,2.2,0,0,1-1.7-.7,2.7,2.7,0,0,1-.6-1.9,3,3,0,0,1,.6-1.9,2,2,0,0,1,1.6-.7,1.7,1.7,0,0,1,1.4.6,2.6,2.6,0,0,1,.5,1.7v.4H37.2a2.4,2.4,0,0,0,.5,1.6,1.7,1.7,0,0,0,1.4.6h.8l.8-.3V44l-.8.3Zm-.1-4.9a1.5,1.5,0,0,0-1.2.5,2.3,2.3,0,0,0-.5,1.4h3.1A2.2,2.2,0,0,0,40,40,1.3,1.3,0,0,0,38.9,39.5Z"/><path d="M45.3,42.9a1.2,1.2,0,0,1-.5,1,2.5,2.5,0,0,1-1.5.4,3.5,3.5,0,0,1-1.6-.3v-.5a3.6,3.6,0,0,0,1.6.4,2.1,2.1,0,0,0,1.1-.2.8.8,0,0,0,.4-.7.8.8,0,0,0-.3-.6l-1-.5-1.1-.5-.5-.4a1.1,1.1,0,0,1-.2-.6,1,1,0,0,1,.5-.9,2.3,2.3,0,0,1,1.3-.3,4,4,0,0,1,1.6.3l-.2.4-1.4-.3-1,.2a.6.6,0,0,0-.4.6.8.8,0,0,0,.3.6l1.1.5,1,.4.5.5A1.1,1.1,0,0,1,45.3,42.9Z"/><path d="M48.6,44.4a2.2,2.2,0,0,1-1.7-.7,2.8,2.8,0,0,1-.6-1.9,2.8,2.8,0,0,1,.6-2,2.2,2.2,0,0,1,1.7-.7l1.3.2v.4l-1.1-.2a1.7,1.7,0,0,0-1.4.6,2.5,2.5,0,0,0-.5,1.7,2.4,2.4,0,0,0,.5,1.6,1.6,1.6,0,0,0,1.3.6l1.3-.2v.4Z"/><path d="M51.5,39.2v3.3a1.6,1.6,0,0,0,.3,1.1,1.3,1.3,0,0,0,1,.3,1.7,1.7,0,0,0,1.3-.5,2.1,2.1,0,0,0,.4-1.5V39.2h.5v5.1h-.4v-.7h0a1.9,1.9,0,0,1-1.8.8q-1.7,0-1.7-1.9V39.2Z"/><path d="M58.8,44.4a2.2,2.2,0,0,1-1.7-.7,2.7,2.7,0,0,1-.6-1.9,3,3,0,0,1,.6-1.9,2,2,0,0,1,1.6-.7,1.7,1.7,0,0,1,1.4.6,2.6,2.6,0,0,1,.5,1.7v.4H56.9a2.4,2.4,0,0,0,.5,1.6,1.7,1.7,0,0,0,1.4.6h.8l.8-.3V44l-.8.3Zm-.1-4.9a1.5,1.5,0,0,0-1.2.5,2.3,2.3,0,0,0-.5,1.4h3.1a2.2,2.2,0,0,0-.4-1.4A1.3,1.3,0,0,0,58.7,39.5Z"/><path d="M19.5,29.5a4.5,4.5,0,0,0-1-1.5l-.7-.6a2.1,2.1,0,0,0-2.2-.2l-.6.5H15a2.1,2.1,0,0,0-.2,2.2,44.1,44.1,0,0,0,4.7,7"/><path d="M19.5,37a44.1,44.1,0,0,0,4.7-7,2.1,2.1,0,0,0-.2-2.2H24l-.6-.5a2.1,2.1,0,0,0-2.2.2l-.7.6a4.5,4.5,0,0,0-1,1.5"/><polygon points="21.7 33.4 19.5 37 16.9 29.5 21.7 29.5 21.7 33.4"/></svg>