<svg xmlns="http://www.w3.org/2000/svg" width="33.5" height="20.5" data-name="Layer 1" viewBox="0 0 33.5 20.5"><path fill="none" stroke="#000" stroke-linecap="round" stroke-miterlimit="10" stroke-width="1.15" d="M5.2 8.1v10h10v-10l-5-5-5 5z"/><path fill="#fff" stroke="#000" stroke-linecap="round" stroke-miterlimit="10" stroke-width="1.15" d="M5.2 8.1a3.2 3.2 0 0 1-2.9.9m15.8 0a3.2 3.2 0 0 1-2.9-.9"/><path d="M17.7 15h1l.2-.7h.4v1.1h-2.7v-.3h.4V12h-.4v-.3h1.5v.3h-.4zm3.6-3.4a1.8 1.8 0 0 1 1.7 1.9 1.7 1.7 0 1 1-3.5 0 1.7 1.7 0 0 1 1.8-1.9zm.1 3.5h.4a1.7 1.7 0 0 0 .4-1.3c0-1.1-.4-1.7-1.1-1.7h-.5a1.9 1.9 0 0 0-.3 1.2c0 1.2.5 1.7 1.1 1.7z"/><path d="M24.1 13.9l-1-1.9h-.4v-.3h1.6v.3h-.4l.7 1.4.7-1.4h-.4v-.3h1.3v.3h-.4l-1 1.9V15h.4v.3h-1.5V15h.4zm2.9-2.3h.7l1.2 3.4h.4v.3h-1.5V15h.4l-.3-.8h-1.4l-.3.8h.4v.3h-1.2V15h.4zm-.3 2.2h1.1l-.5-1.6zm3.9 1.2h1l.3-.7h.4v1.1h-2.8v-.3h.4V12h-.4v-.3H31v.3h-.4zm-13.7 2v-.5h-.4v-.2h.8v.6c0 .2.5-.6.8-.6h.3v.7h-.3v-.4c-.2 0-.4.2-.6.6v1.3h.3v.2h-1.2v-.2h.3zm4.2 1.2a1 1 0 0 1-.9.4 1.1 1.1 0 0 1-1.1-1.2 1.2 1.2 0 0 1 1.1-1.3 1 1 0 0 1 .9 1v.2h-1.5c0 .7.4 1 .8 1a.8.8 0 0 0 .6-.3zm-1.6-1.1h1.2a.6.6 0 0 0-.6-.7h-.2a1 1 0 0 0-.3.7zm3.1 1.5l-.7-.2v-.5h.3v.4h.8a.5.5 0 0 0 .2-.4c0-.5-1.3-.3-1.3-1.1a.8.8 0 0 1 .9-.7h.6v.5h-.3v-.4h-.5a.4.4 0 0 0-.2.3c0 .6 1.3.4 1.3 1.2s-.5.9-1.1.9zm2.9-2.5h.6v.6h-.3v-.4h-.6a1.1 1.1 0 0 0-.3.9c0 .7.4 1 .7 1a.8.8 0 0 0 .6-.3h.1a1 1 0 0 1-.9.4 1.1 1.1 0 0 1-1.1-1.2 1.2 1.2 0 0 1 1.2-1zm2.1 1.6c0 .5.3.6.5.6l.6-.2v-1.6h-.4v-.2h.9v2.1h.4v.2h-.8v-.4a1.1 1.1 0 0 1-.8.4c-.5 0-.7-.4-.7-.9v-1.2h-.4v-.2h.9v.8zm4.6.5a1 1 0 0 1-.9.4 1.1 1.1 0 0 1-1.1-1.2 1.2 1.2 0 0 1 1.1-1.3 1 1 0 0 1 .9 1v.2h-1.6c0 .7.4 1 .8 1a.8.8 0 0 0 .6-.3zm-1.6-1.1h1.2a.6.6 0 0 0-.6-.7H31a1 1 0 0 0-.4.7zm-20.5-5.7a2.2 2.2 0 0 0-.5-.7l-.3-.3a1 1 0 0 0-1.1-.1l-.3.2a1 1 0 0 0-.1 1.1 21.5 21.5 0 0 0 2.3 3.4m0-3.6a2.2 2.2 0 0 1 .5-.7l.3-.3a1 1 0 0 1 1.1-.1l.3.2a1 1 0 0 1 .1 1.1 21.5 21.5 0 0 1-2.3 3.4"/></svg>