<svg xmlns="http://www.w3.org/2000/svg" width="64" height="64" data-name="Layer 1" viewBox="0 0 64 64"><path d="M30.9 44.1H8.6V22.3l11.2-11.2 11.1 11.2zm-20.5-1.8h18.7V23l-9.3-9.3-9.4 9.3z"/><path fill="#fff" d="M9.5 22.7a6.6 6.6 0 0 1-6 1.8"/><path d="M4.8 25.5l-1.5-.2a.9.9 0 0 1 .4-1.8A5.7 5.7 0 0 0 8.9 22a.9.9 0 1 1 1.3 1.3 7.4 7.4 0 0 1-5.4 2.2z"/><path fill="#fff" d="M36 24.5a6.6 6.6 0 0 1-5.9-1.8"/><path d="M34.7 25.6a7.6 7.6 0 0 1-5.3-2.3.9.9 0 1 1 1.3-1.2 5.7 5.7 0 0 0 5.1 1.5.9.9 0 0 1 .3 1.8zm-1.1 11.9v-7.4h.9v6.7h3.3v.8zm11.7-3.7a4.1 4.1 0 0 1-.9 2.8 3.2 3.2 0 0 1-2.5 1 3.2 3.2 0 0 1-2.6-1 4.2 4.2 0 0 1-.9-2.9 4.1 4.1 0 0 1 .9-2.8 3.3 3.3 0 0 1 2.6-1 3.2 3.2 0 0 1 2.5 1 4.1 4.1 0 0 1 .9 2.9zm-6 0a3.6 3.6 0 0 0 .6 2.3 2.6 2.6 0 0 0 3.8 0 3.6 3.6 0 0 0 .6-2.3 3.6 3.6 0 0 0-.6-2.3 2.3 2.3 0 0 0-1.9-.8 2.3 2.3 0 0 0-1.9.8 3.5 3.5 0 0 0-.5 2.3zm8.9 0l2-3.7h.9l-2.5 4.6v2.9h-.9v-2.9l-2.5-4.6h1zm7 3.7l-.9-2.4h-3l-.9 2.4h-.9l3-7.5h.7l2.9 7.5zM54 34.4l-.9-2.3-.3-1.1-.3 1.1-.9 2.3zm3.2 3.1v-7.4h.8v6.7h3.3v.8zm-21.9 1.6h.7v.4h-.7a1.3 1.3 0 0 0-1.1.6 2.2 2.2 0 0 0-.4 1.4v2.8h-.5v-5.1h.4v.9a2.2 2.2 0 0 1 .7-.8zm3.7 5.3a2.2 2.2 0 0 1-1.7-.7 2.7 2.7 0 0 1-.6-1.9 3 3 0 0 1 .6-1.9 2 2 0 0 1 1.6-.7 1.7 1.7 0 0 1 1.4.6 2.6 2.6 0 0 1 .5 1.7v.4h-3.6a2.4 2.4 0 0 0 .5 1.6 1.7 1.7 0 0 0 1.4.6h.8l.8-.3v.2l-.8.3zm-.1-4.9a1.5 1.5 0 0 0-1.2.5 2.3 2.3 0 0 0-.5 1.4h3.1A2.2 2.2 0 0 0 40 40a1.3 1.3 0 0 0-1.1-.5zm6.4 3.4a1.2 1.2 0 0 1-.5 1 2.5 2.5 0 0 1-1.5.4 3.5 3.5 0 0 1-1.6-.3v-.5a3.6 3.6 0 0 0 1.6.4 2.1 2.1 0 0 0 1.1-.2.8.8 0 0 0 .4-.7.8.8 0 0 0-.3-.6l-1-.5-1.1-.5-.5-.4a1.1 1.1 0 0 1-.2-.6 1 1 0 0 1 .5-.9 2.3 2.3 0 0 1 1.3-.3 4 4 0 0 1 1.6.3l-.2.4-1.4-.3-1 .2a.6.6 0 0 0-.4.6.8.8 0 0 0 .3.6l1.1.5 1 .4.5.5a1.1 1.1 0 0 1 .3.5zm3.3 1.5a2.2 2.2 0 0 1-1.7-.7 2.8 2.8 0 0 1-.6-1.9 2.8 2.8 0 0 1 .6-2 2.2 2.2 0 0 1 1.7-.7l1.3.2v.4l-1.1-.2a1.7 1.7 0 0 0-1.4.6 2.5 2.5 0 0 0-.5 1.7 2.4 2.4 0 0 0 .5 1.6 1.6 1.6 0 0 0 1.3.6l1.3-.2v.4zm2.9-5.2v3.3a1.6 1.6 0 0 0 .3 1.1 1.3 1.3 0 0 0 1 .3 1.7 1.7 0 0 0 1.3-.5 2.1 2.1 0 0 0 .4-1.5v-2.7h.5v5.1h-.4v-.7a1.9 1.9 0 0 1-1.8.8q-1.7 0-1.7-1.9v-3.3zm7.3 5.2a2.2 2.2 0 0 1-1.7-.7 2.7 2.7 0 0 1-.6-1.9 3 3 0 0 1 .6-1.9 2 2 0 0 1 1.6-.7 1.7 1.7 0 0 1 1.4.6 2.6 2.6 0 0 1 .5 1.7v.4h-3.7a2.4 2.4 0 0 0 .5 1.6 1.7 1.7 0 0 0 1.4.6h.8l.8-.3v.2l-.8.3zm-.1-4.9a1.5 1.5 0 0 0-1.2.5 2.3 2.3 0 0 0-.5 1.4h3.1a2.2 2.2 0 0 0-.4-1.4 1.3 1.3 0 0 0-1-.5zm-39.2-10a4.5 4.5 0 0 0-1-1.5l-.7-.6a2.1 2.1 0 0 0-2.2-.2l-.6.5a2.1 2.1 0 0 0-.2 2.2 44.1 44.1 0 0 0 4.7 7m0 .1a44.1 44.1 0 0 0 4.7-7 2.1 2.1 0 0 0-.2-2.2l-.6-.5a2.1 2.1 0 0 0-2.2.2l-.7.6a4.5 4.5 0 0 0-1 1.5"/><path d="M21.7 33.4L19.5 37l-2.6-7.5h4.8v3.9z"/></svg>