<svg xmlns="http://www.w3.org/2000/svg" width="18.9" height="19.4" data-name="Layer 1" viewBox="0 0 18.9 19.4"><path fill="none" stroke="#000" stroke-linecap="round" stroke-miterlimit="10" d="M4.4 7.3v9.2h9.3V7.3L9 2.6 4.4 7.3z"/><path fill="#fff" stroke="#000" stroke-linecap="round" stroke-miterlimit="10" d="M4.4 7.3a3 3 0 0 1-2.7.8m14.7 0a3 3 0 0 1-2.7-.8"/><path d="M8.9 10.3a2.1 2.1 0 0 0-.4-.7l-.3-.3a1 1 0 0 0-1-.1l-.3.2a.9.9 0 0 0-.1 1 20 20 0 0 0 2.1 3.2m0-3.3a2.1 2.1 0 0 1 .4-.7l.3-.3a1 1 0 0 1 1-.1l.3.2a.9.9 0 0 1 .1 1 20 20 0 0 1-2.1 3.2"/></svg>