<svg xmlns="http://www.w3.org/2000/svg" width="32" height="32" data-name="Layer 1" viewBox="0 0 32 32"><path d="M15.5 22.7H4.7V12.2l5.4-5.4 5.4 5.4zm-9.9-.9h9v-9.3L10.1 8l-4.5 4.5z"/><path fill="#fff" d="M5.2 12.3a3.2 3.2 0 0 1-2.9.9"/><path d="M2.9 13.7h-.7a.4.4 0 0 1 .2-.8 2.7 2.7 0 0 0 2.5-.9.4.4 0 1 1 .6.6 3.6 3.6 0 0 1-2.6 1.1z"/><path fill="#fff" d="M17.9 13.2a3.2 3.2 0 0 1-2.9-.9"/><path d="M17.3 13.7a3.6 3.6 0 0 1-2.6-1.1.4.4 0 1 1 .6-.6 2.7 2.7 0 0 0 2.5.7.4.4 0 0 1 .2.9zm-.5 5.8v-3.6h.4v3.2h1.6v.4zm5.6-1.8a2 2 0 0 1-.4 1.4 1.5 1.5 0 0 1-1.2.5 1.6 1.6 0 0 1-1.2-.5 2 2 0 0 1-.4-1.4 2 2 0 0 1 .4-1.4 1.6 1.6 0 0 1 1.2-.5 1.5 1.5 0 0 1 1.2.5 2 2 0 0 1 .4 1.4zm-2.9 0a1.7 1.7 0 0 0 .3 1.1 1.3 1.3 0 0 0 1.8 0 1.7 1.7 0 0 0 .3-1.1 1.7 1.7 0 0 0-.3-1.1 1.1 1.1 0 0 0-.9-.4 1.1 1.1 0 0 0-.9.4 1.7 1.7 0 0 0-.2 1.1zm4.3 0l1-1.8h.5L24 18.1v1.4h-.4v-1.4l-1.2-2.2h.5zm3.4 1.8l-.4-1.1h-1.5l-.4 1.1h-.4l1.4-3.6h.4l1.4 3.6zm-.6-1.5l-.4-1.1-.2-.5-.2.5-.4 1.1zm1.5 1.5v-3.6h.4v3.2h1.6v.4zm-10.5.8h.3v.2h-.3a.6.6 0 0 0-.5.3 1.1 1.1 0 0 0-.2.7v1.3h-.2v-2.5h.2v.4l.3-.4zm1.8 2.5a1.1 1.1 0 0 1-.8-.3 1.3 1.3 0 0 1-.3-.9 1.4 1.4 0 0 1 .3-.9.9.9 0 0 1 .8-.4.8.8 0 0 1 .7.3 1.2 1.2 0 0 1 .2.8v.2h-1.8a1.2 1.2 0 0 0 .2.8.8.8 0 0 0 .7.3h.8v.2h-.8zm-.1-2.3l-.6.2a1.1 1.1 0 0 0-.2.7H20a1.1 1.1 0 0 0-.2-.7.6.6 0 0 0-.5-.2zm3.1 1.6a.6.6 0 0 1-.2.5l-.7.2-.8-.2v-.2l.8.2h.5a.4.4 0 0 0 .2-.3.4.4 0 0 0-.1-.3l-.5-.2-.5-.2-.2-.2a.5.5 0 0 1-.1-.3.5.5 0 0 1 .2-.4l.6-.2h.8v.2h-1.2a.3.3 0 0 0-.2.3.4.4 0 0 0 .1.3l.5.3.5.2.2.2a.5.5 0 0 1 .1.1zm1.6.7a1 1 0 0 1-.8-.3 1.3 1.3 0 0 1-.3-.9 1.4 1.4 0 0 1 .3-.9 1.1 1.1 0 0 1 .8-.3h.6v.2H24a.8.8 0 0 0-.7.3 1.2 1.2 0 0 0-.2.8 1.2 1.2 0 0 0 .2.8.8.8 0 0 0 .6.3h.6v.2zm1.4-2.5v1.6a.8.8 0 0 0 .2.5l.5.2.6-.2a1 1 0 0 0 .2-.7v-1.4h.2v2.4h-.2v-.3a.9.9 0 0 1-.8.4q-.8 0-.8-.9v-1.6zm3.5 2.5a1.1 1.1 0 0 1-.8-.3 1.3 1.3 0 0 1-.3-.9 1.4 1.4 0 0 1 .3-.9.9.9 0 0 1 .8-.4.8.8 0 0 1 .7.3 1.2 1.2 0 0 1 .2.8v.2H28a1.2 1.2 0 0 0 .2.8.8.8 0 0 0 .7.3h.8v.2h-.8zm-.1-2.3l-.6.2a1.1 1.1 0 0 0-.2.7h1.5a1.1 1.1 0 0 0-.2-.7.6.6 0 0 0-.5-.2zM10 15.6a2.2 2.2 0 0 0-.5-.7l-.3-.3a1 1 0 0 0-1-.1l-.3.2a1 1 0 0 0-.1 1.1 21.3 21.3 0 0 0 2.2 3.4m0-3.6a2.2 2.2 0 0 1 .5-.7l.3-.3a1 1 0 0 1 1-.1l.3.2a1 1 0 0 1 .1 1.1 21.3 21.3 0 0 1-2.2 3.4"/></svg>