<svg id="Layer_1" data-name="Layer 1" xmlns="http://www.w3.org/2000/svg" width="64" height="64" viewBox="0 0 64 64"><title>Artboard 1</title><polygon points="6.9 24.7 6.9 44.4 26.7 44.4 26.7 24.7 16.8 14.8 6.9 24.7" fill="none" stroke="#000" stroke-linecap="round" stroke-miterlimit="10" stroke-width="2"/><path d="M6.9,24.7a6.4,6.4,0,0,1-5.7,1.7" fill="#fff" stroke="#000" stroke-linecap="round" stroke-miterlimit="10" stroke-width="2"/><path d="M32.4,26.5a6.4,6.4,0,0,1-5.7-1.8" fill="#fff" stroke="#000" stroke-linecap="round" stroke-miterlimit="10" stroke-width="2"/><path d="M31.6,38.3h2.1l.5-1.4h.8L34.8,39H29.4v-.5l.8-.2V32.4l-.8-.2v-.6h3v.6l-.8.2Z"/><path d="M38.7,31.5c2,0,3.3,1.7,3.3,3.8a3.5,3.5,0,0,1-3.5,3.8c-2.1,0-3.4-1.7-3.4-3.8S36.4,31.5,38.7,31.5Zm.2,6.8.8-.2a3.4,3.4,0,0,0,.8-2.5c0-2.2-.8-3.3-2.2-3.3l-1,.3a3.7,3.7,0,0,0-.6,2.3C36.7,37.3,37.7,38.3,38.9,38.3Z"/><path d="M44.2,36.1l-2-3.7-.8-.2v-.6h3.2v.6l-.8.2,1.4,2.8,1.5-2.8-.8-.2v-.6h2.6v.6l-.8.2-2,3.7v2.1l.8.2V39h-3v-.5l.8-.2Z"/><path d="M50,31.6h1.4l2.4,6.6.8.2V39H51.5v-.5l.8-.2-.5-1.5H49.1l-.5,1.5.8.2V39H46.8v-.5l.8-.2Zm-.7,4.3h2.2l-1.1-3.2Z"/><path d="M57.2,38.3h2.1l.5-1.4h.8L60.3,39H55v-.5l.8-.2V32.4l-.8-.2v-.6h3v.6l-.8.2Z"/><path d="M30.1,42.2c0-.2,0-.9,0-1h-.8v-.4h1.6c0,.4.1.8.1,1.3s.9-1.3,1.5-1.3l.6.2v1.3h-.6l-.2-.8c-.5,0-.9.4-1.3,1.1v2.5l.6.2v.3H29.4v-.3l.7-.2Z"/><path d="M38.4,44.6a2,2,0,0,1-1.8.9,2.2,2.2,0,0,1-2.2-2.4,2.3,2.3,0,0,1,2.2-2.5,1.9,1.9,0,0,1,1.8,2l-.3.3H35.3c0,1.4.8,2,1.6,2a1.6,1.6,0,0,0,1.3-.5Zm-3.1-2.2h2.3A1.2,1.2,0,0,0,36.3,41H36A1.9,1.9,0,0,0,35.3,42.5Z"/><path d="M41.4,45.5a2.6,2.6,0,0,1-1.4-.4v-1h.6l.2.7.8.2h.5a.9.9,0,0,0,.3-.7c0-1.1-2.5-.7-2.5-2.3a1.6,1.6,0,0,1,1.8-1.4l1.3.3v1h-.6l-.2-.7H41a.8.8,0,0,0-.4.7c0,1.1,2.5.7,2.5,2.3S42.4,45.5,41.4,45.5Z"/><path d="M47,40.6a3,3,0,0,1,1.3.3v1.3h-.7l-.2-.8-.9-.2h-.3a2.2,2.2,0,0,0-.6,1.8c0,1.4.7,2,1.4,2a1.5,1.5,0,0,0,1.2-.5l.3.2a2,2,0,0,1-1.7.9,2.1,2.1,0,0,1-2.1-2.4A2.3,2.3,0,0,1,47,40.6Z"/><path d="M51.3,43.7c0,1,.5,1.1,1,1.1a1.9,1.9,0,0,0,1.1-.4V42.2c0-.2,0-.9,0-1h-.8v-.4h1.7c0,.5,0,1.1,0,1.6v1.6c0,.3,0,.9,0,1.1H55v.3l-1.5.2c0-.2,0-.5-.1-.7a2.3,2.3,0,0,1-1.5.7c-.9,0-1.5-.7-1.5-1.7V42.2c0-.2,0-.9,0-1h-.8v-.4h1.7c0,.5,0,1.1,0,1.6Z"/><path d="M60.3,44.6a2,2,0,0,1-1.8.9,2.2,2.2,0,0,1-2.2-2.4,2.3,2.3,0,0,1,2.2-2.5,1.9,1.9,0,0,1,1.8,2l-.3.3H57.2c0,1.4.8,2,1.6,2a1.6,1.6,0,0,0,1.3-.5Zm-3.1-2.2h2.3A1.2,1.2,0,0,0,58.2,41h-.4A1.9,1.9,0,0,0,57.2,42.5Z"/><path d="M16.6,31.2a4.4,4.4,0,0,0-1-1.5l-.6-.5a2.1,2.1,0,0,0-2.1-.2l-.6.5h-.1a2,2,0,0,0-.2,2.1,42.5,42.5,0,0,0,4.5,6.8"/><path d="M16.6,31.2a4.4,4.4,0,0,1,1-1.5l.6-.5a2.1,2.1,0,0,1,2.1-.2l.6.5h.1a2,2,0,0,1,.2,2.1,42.5,42.5,0,0,1-4.5,6.8"/></svg>