<svg id="Layer_1" data-name="Layer 1" xmlns="http://www.w3.org/2000/svg" width="32" height="32" viewBox="0 0 32 32"><title>Artboard 1</title><polygon points="3.8 13.1 3.8 23 13.8 23 13.8 13.1 8.8 8.1 3.8 13.1" fill="none" stroke="#000" stroke-linecap="round" stroke-miterlimit="10" stroke-width="1.15"/><path d="M3.8,13.1a3.2,3.2,0,0,1-2.9.9" fill="#fff" stroke="#000" stroke-linecap="round" stroke-miterlimit="10" stroke-width="1.15"/><path d="M16.7,14a3.2,3.2,0,0,1-2.9-.9" fill="#fff" stroke="#000" stroke-linecap="round" stroke-miterlimit="10" stroke-width="1.15"/><path d="M16.2,19.9h1l.2-.7h.4v1.1H15.1V20h.4V17h-.4v-.3h1.5v.3h-.4Z"/><path d="M19.8,16.5a1.8,1.8,0,0,1,1.7,1.9,1.7,1.7,0,1,1-3.5,0A1.7,1.7,0,0,1,19.8,16.5Zm.1,3.5h.4a1.7,1.7,0,0,0,.4-1.3c0-1.1-.4-1.7-1.1-1.7h-.5a1.9,1.9,0,0,0-.3,1.2C18.8,19.4,19.3,20,19.9,20Z"/><path d="M22.6,18.8l-1-1.9h-.4v-.3h1.6v.3h-.4l.7,1.4.7-1.4h-.4v-.3h1.3v.3h-.4l-1,1.9v1.1h.4v.3H22.2V20h.4Z"/><path d="M25.5,16.5h.7l1.2,3.4h.4v.3H26.3V20h.4l-.3-.8H25.1l-.3.8h.4v.3H23.9V20h.4Zm-.3,2.2h1.1l-.5-1.6Z"/><path d="M29.2,19.9h1l.3-.7h.4v1.1H28.1V20h.4V17h-.4v-.3h1.5v.3h-.4Z"/><path d="M15.5,21.9c0-.1,0-.4,0-.5h-.4v-.2h.8c0,.2,0,.4,0,.6s.5-.6.8-.6H17v.7h-.3v-.4c-.2,0-.4.2-.6.6v1.3h.3v.2H15.1v-.2h.3Z"/><path d="M19.7,23.1a1,1,0,0,1-.9.4,1.1,1.1,0,0,1-1.1-1.2,1.2,1.2,0,0,1,1.1-1.3,1,1,0,0,1,.9,1v.2H18.1c0,.7.4,1,.8,1a.8.8,0,0,0,.6-.3ZM18.1,22h1.2a.6.6,0,0,0-.6-.7h-.2A1,1,0,0,0,18.1,22Z"/><path d="M21.2,23.6l-.7-.2v-.5h.3v.4h.7a.5.5,0,0,0,.2-.4c0-.5-1.3-.3-1.3-1.1a.8.8,0,0,1,.9-.7H22v.5h-.3v-.4H21a.4.4,0,0,0-.2.3c0,.6,1.3.4,1.3,1.2S21.7,23.6,21.2,23.6Z"/><path d="M24,21.1h.6v.6h-.3v-.4h-.6a1.1,1.1,0,0,0-.3.9c0,.7.4,1,.7,1a.8.8,0,0,0,.6-.3h.1a1,1,0,0,1-.9.4,1.1,1.1,0,0,1-1.1-1.2A1.2,1.2,0,0,1,24,21.1Z"/><path d="M26.2,22.7c0,.5.3.6.5.6l.6-.2V21.9c0-.1,0-.4,0-.5h-.4v-.2h.9c0,.2,0,.5,0,.8v.8c0,.2,0,.5,0,.5h.4v.2h-.8v-.4a1.1,1.1,0,0,1-.8.4c-.5,0-.7-.4-.7-.9v-.8c0-.1,0-.4,0-.5h-.4v-.2h.9c0,.2,0,.5,0,.8Z"/><path d="M30.7,23.1a1,1,0,0,1-.9.4,1.1,1.1,0,0,1-1.1-1.2,1.2,1.2,0,0,1,1.1-1.3,1,1,0,0,1,.9,1v.2H29.2c0,.7.4,1,.8,1a.8.8,0,0,0,.6-.3ZM29.2,22h1.2a.6.6,0,0,0-.6-.7h-.2A1,1,0,0,0,29.2,22Z"/><path d="M8.6,16.4a2.2,2.2,0,0,0-.5-.7l-.3-.3a1,1,0,0,0-1.1-.1l-.3.2h0a1,1,0,0,0-.1,1.1A21.5,21.5,0,0,0,8.6,20"/><path d="M8.6,16.4a2.2,2.2,0,0,1,.5-.7l.3-.3a1,1,0,0,1,1.1-.1l.3.2h0a1,1,0,0,1,.1,1.1A21.5,21.5,0,0,1,8.6,20"/></svg>