<svg xmlns="http://www.w3.org/2000/svg" width="67.2" height="40.5" data-name="Layer 1" viewBox="0 0 67.2 40.5"><path fill="none" stroke="#000" stroke-linecap="round" stroke-miterlimit="10" stroke-width="2" d="M11.4 16v19.7h19.7V16l-9.8-9.9-9.9 9.9z"/><path fill="#fff" stroke="#000" stroke-linecap="round" stroke-miterlimit="10" stroke-width="2" d="M11.4 16a6.4 6.4 0 0 1-5.7 1.7m31.2.1a6.4 6.4 0 0 1-5.7-1.8"/><path d="M36.1 29.6h2.1l.5-1.4h.8l-.2 2.1h-5.4v-.5l.8-.2v-5.9l-.8-.2v-.6h3v.6l-.8.2zm7-6.8c2 0 3.3 1.7 3.3 3.8a3.5 3.5 0 0 1-3.4 3.8c-2.1 0-3.4-1.7-3.4-3.8s1.3-3.8 3.5-3.8zm.2 6.8l.8-.2A3.4 3.4 0 0 0 45 27c0-2.2-.8-3.3-2.2-3.3l-1 .3a3.7 3.7 0 0 0-.6 2.3c-.1 2.3 1 3.3 2.2 3.3zm5.4-2.2l-2-3.7-.8-.2v-.6H49v.6l-.8.2 1.4 2.8 1.5-2.8-.8-.2v-.6h2.6v.6l-.8.2-2 3.7v2.1l.8.2v.5h-3v-.5l.8-.2zm5.8-4.5h1.4l2.4 6.6.8.2v.5H56v-.5l.8-.2-.6-1.5h-2.7l-.5 1.5.8.2v.5h-2.6v-.5l.8-.2zm-.7 4.3H56L54.9 24zm7.8 2.4h2.1l.5-1.4h.8l-.2 2.1h-5.3v-.5l.8-.2v-5.9l-.8-.2v-.6h3v.6l-.8.2zm-27 3.9v-1h-.8V32h1.6c0 .4.1.8.1 1.3S36.4 32 37 32l.6.2v1.3H37l-.2-.8c-.5 0-.9.4-1.3 1.1v2.5l.6.2v.3h-2.2v-.3l.7-.2zm8.2 2.4a2 2 0 0 1-1.8.9 2.2 2.2 0 0 1-2.2-2.4 2.3 2.3 0 0 1 2.2-2.5 1.9 1.9 0 0 1 1.8 2l-.3.3h-2.8c0 1.4.8 2 1.6 2a1.6 1.6 0 0 0 1.3-.5zm-3.1-2.2H42a1.2 1.2 0 0 0-1.3-1.4h-.4a1.9 1.9 0 0 0-.6 1.5zm6.1 3.1a2.6 2.6 0 0 1-1.4-.4v-1h.6l.2.7.8.2h.5a.9.9 0 0 0 .3-.7c0-1.1-2.5-.7-2.5-2.3a1.6 1.6 0 0 1 1.8-1.4l1.3.3v1h-.6l-.2-.7h-1a.8.8 0 0 0-.4.7c0 1.1 2.5.7 2.5 2.3s-.8 1.3-1.9 1.3zm5.6-5a3 3 0 0 1 1.3.3v1.3H52l-.2-.8-.9-.2h-.3a2.2 2.2 0 0 0-.6 1.8c0 1.4.7 2 1.4 2a1.5 1.5 0 0 0 1.2-.5l.3.2a2 2 0 0 1-1.7.9 2.1 2.1 0 0 1-2.1-2.4 2.3 2.3 0 0 1 2.3-2.6zm4.3 3.2c0 1 .5 1.1 1 1.1a1.9 1.9 0 0 0 1.1-.4v-3.2H57V32h1.7v4.3h.7v.3l-1.5.2c0-.2 0-.5-.1-.7a2.3 2.3 0 0 1-1.5.7c-.9 0-1.5-.7-1.5-1.7v-2.6H54V32h1.7v1.6zm9 .9a2 2 0 0 1-1.8.9 2.2 2.2 0 0 1-2.2-2.4 2.3 2.3 0 0 1 2.3-2.6 1.9 1.9 0 0 1 1.8 2l-.3.3h-2.9c0 1.4.8 2 1.6 2a1.6 1.6 0 0 0 1.3-.5zm-3.1-2.2H64a1.2 1.2 0 0 0-1.3-1.4h-.4a1.9 1.9 0 0 0-.6 1.5zM21 22.5a4.4 4.4 0 0 0-1-1.5l-.6-.5a2.1 2.1 0 0 0-2.1-.2l-.6.5h-.1a2 2 0 0 0-.2 2.1 42.5 42.5 0 0 0 4.6 6.9m0-7.3a4.4 4.4 0 0 1 1-1.5l.6-.5a2.1 2.1 0 0 1 2.1-.2l.6.5h.1a2 2 0 0 1 .2 2.1 42.5 42.5 0 0 1-4.6 6.9"/></svg>